<?xml version="1.0" encoding="utf-8"?>
<!-- Generator: Adobe Illustrator 22.1.0, SVG Export Plug-In . SVG Version: 6.00 Build 0)  -->
<svg version="1.1" id="Layer_1" xmlns="http://www.w3.org/2000/svg" xmlns:xlink="http://www.w3.org/1999/xlink" x="0px" y="0px"
	 viewBox="0 0 800 800" style="enable-background:new 0 0 800 800;" xml:space="preserve">
<style type="text/css">
	.st0{fill:#4CC3AD;}
	.st1{fill:none;stroke:#101010;stroke-width:7;stroke-linecap:round;}
</style>
<rect class="st0" width="800" height="800"/>
<g id="Group_11">
	<path id="Vector_5" class="st1" d="M294.4,288.3c37.8-47.2,106.3-65.7,161.4-38.8c15.9,7.7,30.4,17.9,43.6,29.6"/>
	<path id="Vector_6" class="st1" d="M285.2,343.4c35.2-53.8,128.6-131.7,221-13"/>
	<path id="Vector_8" class="st1" d="M508.5,448.9c7.1-15.6,16.5-57.8-3.1-102.5"/>
	<path id="Vector_7" class="st1" d="M283.7,387.7c18-14.1,19.1-17.6,40.5-45.9c11.4-15.1,30.6-45.1,75.7-43.6s77.2,19.1,86.4,74.9
		c0.8,6.4,0.9,25.8-4.6,52.8c-5.5,26.9,11.5,44.4,20.6,49.7"/>
	<path id="Vector_9" class="st1" d="M284.4,428.3c9.9-6.1,48.9-38.2,61.9-70.4c13-32.1,123.1-68.1,105.5,56.6
		c-3.1,19.6-0.8,63.3,32.9,81.1"/>
	<path id="Vector_10" class="st1" d="M282.9,468c27-14.3,72.7-61,95.6-99.4c24.7-41.6,80.5,18.4,39,62.7
		c-41.5,44.3-74.3,73.2-90.2,84.1 M295.1,500.9c34.2-28.3,103.4-89.6,107.1-108.6"/>
	<path id="Vector_11" class="st1" d="M453.4,521.6c-16.8-6.6-45.4-29.8-25.2-69.6"/>
	<path id="Vector_12" class="st1" d="M352.5,526.9c16.8-18.9,52.5-44.2,60.4,5.4"/>
</g>
</svg>
