<svg width="800" height="800" viewBox="0 0 800 800" fill="none" xmlns="http://www.w3.org/2000/svg">
<g clip-path="url(#clip0_201_3)">
<path d="M800 0H0V800H800V0Z" fill="#4CC3AD"/>
<path d="M392.3 281.2C326.8 281.2 273.7 334.3 273.7 399.8C273.7 465.3 326.8 518.4 392.3 518.4C457.8 518.4 510.9 465.3 510.9 399.8C510.9 334.3 457.8 281.2 392.3 281.2ZM392.3 497.5C338.4 497.5 294.6 453.8 294.6 399.8C294.6 345.9 338.3 302.1 392.3 302.1C446.2 302.1 490 345.8 490 399.8C489.9 453.8 446.2 497.5 392.3 497.5Z" fill="#101010"/>
<path d="M365.6 406.6H342.7V463.2H365.6V406.6Z" fill="#101010"/>
<path d="M400.3 375.6H377.4V463.3H400.3V375.6Z" fill="#101010"/>
<path d="M433.4 335.1H410.5V463.2H433.4V335.1Z" fill="#101010"/>
</g>
<defs>
<clipPath id="clip0_201_3">
<rect width="800" height="800" fill="white"/>
</clipPath>
</defs>
</svg>
