<svg width="52" height="60" viewBox="0 0 52 60" fill="none" xmlns="http://www.w3.org/2000/svg">
<g clip-path="url(#clip0_128_4)">
<path d="M8.3498 2.4819C6.60832 2.4819 5.02283 3.3478 4.09602 4.81014C3.15424 6.29627 3.07055 8.11745 3.87191 9.68169L12.1463 25.8295C12.6254 26.7641 13.4518 27.4332 14.4735 27.7135C15.4951 27.9937 16.5525 27.8414 17.4512 27.2849L47.5471 8.63276C48.9644 7.75431 49.1545 6.32592 48.8594 5.28215C48.5647 4.23828 47.6534 3.11339 45.9804 3.08649L8.43462 2.48259C8.40626 2.48207 8.37816 2.4819 8.3498 2.4819ZM15.4667 30.3287C14.9084 30.3287 14.3478 30.2549 13.801 30.1049C12.115 29.6422 10.6947 28.4924 9.90449 26.9503L1.63009 10.8025C0.427401 8.45541 0.553116 5.72304 1.966 3.49337C3.37922 1.2636 5.81679 -0.040624 8.47551 0.000965483L46.0213 0.604873C48.539 0.645432 50.6034 2.21956 51.2798 4.61516C51.9566 7.01086 51.0156 9.41308 48.8826 10.7349L18.7867 29.3871C17.7852 30.0079 16.6305 30.3287 15.4667 30.3287Z" fill="#F8B024"/>
</g>
<defs>
<clipPath id="clip0_128_4">
<rect width="52" height="60" fill="white"/>
</clipPath>
</defs>
</svg>
