<svg width="30" height="35" viewBox="0 0 30 35" fill="none" xmlns="http://www.w3.org/2000/svg">
<g clip-path="url(#clip0_128_4)">
<path d="M4.42997 2.26332C3.93006 2.26332 3.42919 2.39214 2.96908 2.65038C2.01773 3.18441 1.4497 4.15394 1.4497 5.24375V29.2746C1.4497 30.3615 2.01522 31.3296 2.9625 31.8644C3.90978 32.399 5.03183 32.3843 5.96446 31.8238L27.3381 18.9793C27.9205 18.6293 28.2691 18.0152 28.2708 17.3365C28.2725 16.6577 27.9268 16.042 27.3463 15.6892L5.97704 2.70246C5.49586 2.40998 4.96337 2.26332 4.42997 2.26332ZM4.43012 33.7054C3.68311 33.7054 2.9353 33.5122 2.24912 33.1246C0.840773 32.3296 0 30.8903 0 29.2746V5.24375C0 3.62351 0.844385 2.18216 2.25871 1.38828C3.67317 0.594652 5.34503 0.623521 6.73085 1.46567L28.1 14.4524C29.1175 15.0708 29.7233 16.1503 29.7205 17.34C29.7175 18.5298 29.1063 19.6063 28.0856 20.2198L6.71198 33.0642C6.00115 33.4913 5.21619 33.7054 4.43012 33.7054Z" fill="#DCFF60"/>
<path d="M8.93232 18.4344C8.73871 18.4344 8.54348 18.4609 8.35032 18.5144C7.76088 18.6779 7.28411 19.0683 7.00771 19.6134L2.23401 29.0331C1.7717 29.9455 1.81998 31.0078 2.36331 31.8748C2.89801 32.7278 3.81272 33.2328 4.81726 33.2328C4.83363 33.2328 4.84999 33.2327 4.86635 33.2325L26.5274 32.8803C27.4926 32.8645 28.0183 32.2083 28.1883 31.5994C28.3585 30.9905 28.2489 30.1573 27.4312 29.6449L10.0682 18.7645C9.71965 18.5461 9.32971 18.4344 8.93232 18.4344ZM4.81646 34.6806C3.30903 34.6808 1.93687 33.9228 1.13446 32.643C0.31933 31.3423 0.246803 29.7484 0.940661 28.3793L5.71435 18.9597C6.17024 18.06 6.98965 17.3893 7.9624 17.1194C8.93532 16.8499 9.98376 17.0024 10.8387 17.5381L28.2017 28.4186C29.4323 29.1897 29.9751 30.591 29.5849 31.9884C29.1944 33.3859 28.0037 34.3042 26.551 34.3278L4.88994 34.68C4.8654 34.6805 4.84085 34.6806 4.81646 34.6806Z" fill="#CEFF43"/>
<path d="M4.81742 1.44778C3.81272 1.44778 2.89801 1.95288 2.36331 2.80592C1.81998 3.67282 1.7717 4.73518 2.23402 5.64765L7.00771 15.0672C7.28411 15.6124 7.76088 16.0027 8.35032 16.1662C8.93971 16.3297 9.54974 16.2408 10.0682 15.9162L27.4312 5.03578C28.2489 4.52335 28.3586 3.69012 28.1883 3.08125C28.0183 2.47233 27.4926 1.81614 26.5274 1.80045L4.86635 1.44818C4.84999 1.44787 4.83378 1.44778 4.81742 1.44778ZM8.92332 17.6917C8.60122 17.6917 8.2778 17.6487 7.96234 17.5612C6.98965 17.2913 6.17024 16.6206 5.71435 15.721L0.940662 6.30146C0.246803 4.93232 0.319331 3.33844 1.13446 2.0378C1.94978 0.7371 3.35607 -0.0236974 4.88994 0.000563199L26.551 0.352843C28.0035 0.376502 29.1945 1.29474 29.5847 2.69218C29.9752 4.08967 29.4323 5.49096 28.2017 6.26203L10.8387 17.1425C10.2609 17.5046 9.59474 17.6917 8.92332 17.6917Z" fill="#CEFF43"/>
</g>
<defs>
<clipPath id="clip0_128_4">
<rect width="30" height="35" fill="white"/>
</clipPath>
</defs>
</svg>
