<svg width="52" height="60" viewBox="0 0 52 60" fill="none" xmlns="http://www.w3.org/2000/svg">
<path d="M7.67862 3.87996C6.8121 3.87996 5.94393 4.10079 5.1464 4.5435C3.4974 5.45898 2.51282 7.12102 2.51282 8.98928V50.1851C2.51282 52.0482 3.49305 53.7078 5.135 54.6247C6.77695 55.5412 8.72184 55.5159 10.3384 54.555L47.386 32.5359C48.3955 31.936 48.9997 30.8832 49.0027 29.7197C49.0056 28.5561 48.4064 27.5006 47.4002 26.8957L10.3602 4.63278C9.52615 4.13138 8.60317 3.87996 7.67862 3.87996ZM7.67888 57.7807C6.38406 57.7807 5.08785 57.4495 3.89847 56.7851C1.45734 55.4222 0 52.9548 0 50.1851V8.98928C0 6.21172 1.4636 3.74084 3.91509 2.3799C6.36683 1.01939 9.26472 1.06888 11.6668 2.51257L48.7066 24.7755C50.4704 25.8356 51.5204 27.6862 51.5155 29.7257C51.5104 31.7653 50.451 33.6108 48.6817 34.6625L11.6341 56.6814C10.402 57.4136 9.04139 57.7807 7.67888 57.7807Z" fill="#EAB142"/>
</svg>
