<svg width="52" height="60" viewBox="0 0 52 60" fill="none" xmlns="http://www.w3.org/2000/svg">
<path d="M15.4823 31.6018C15.1467 31.6018 14.8083 31.6472 14.4735 31.739C13.4518 32.0193 12.6254 32.6885 12.1463 33.623L3.8719 49.771C3.07055 51.3352 3.15424 53.1563 4.09602 54.6425C5.02283 56.1048 6.60832 56.9706 8.34953 56.9706C8.3779 56.9706 8.40626 56.9704 8.43462 56.9701L45.9804 56.3663C47.6534 56.3391 48.5647 55.2143 48.8594 54.1704C49.1544 53.1266 48.9644 51.6982 47.5471 50.8198L17.4512 32.1677C16.847 31.7933 16.1711 31.6018 15.4823 31.6018ZM8.34814 59.4525C5.73527 59.4528 3.35686 58.1534 1.966 55.9594C0.553115 53.7296 0.427401 50.9972 1.63009 48.6502L9.90449 32.5023C10.6947 30.9601 12.115 29.8103 13.8011 29.3476C15.4875 28.8856 17.3048 29.147 18.7867 30.0654L48.8826 48.7176C51.0156 50.0395 51.9565 52.4417 51.2801 54.8372C50.6033 57.233 48.5394 58.8073 46.0213 58.8477L8.47551 59.4515C8.43297 59.4523 8.39042 59.4525 8.34814 59.4525Z" fill="#F8B024"/>
</svg>
