<svg width="52" height="60" viewBox="0 0 52 60" fill="none" xmlns="http://www.w3.org/2000/svg">
<g clip-path="url(#clip0_128_4)">
<path d="M7.67862 3.87996C6.8121 3.87996 5.94393 4.10079 5.1464 4.5435C3.4974 5.45898 2.51282 7.12102 2.51282 8.98928V50.1851C2.51282 52.0482 3.49305 53.7078 5.135 54.6247C6.77695 55.5412 8.72184 55.5159 10.3384 54.555L47.386 32.5359C48.3955 31.936 48.9997 30.8832 49.0027 29.7197C49.0056 28.5561 48.4064 27.5006 47.4002 26.8957L10.3602 4.63278C9.52615 4.13138 8.60317 3.87996 7.67862 3.87996ZM7.67888 57.7807C6.38406 57.7807 5.08785 57.4495 3.89847 56.7851C1.45734 55.4222 0 52.9548 0 50.1851V8.98928C0 6.21172 1.4636 3.74084 3.91509 2.3799C6.36683 1.01939 9.26472 1.06888 11.6668 2.51257L48.7066 24.7755C50.4704 25.8356 51.5204 27.6862 51.5155 29.7257C51.5104 31.7653 50.451 33.6108 48.6817 34.6625L11.6341 56.6814C10.402 57.4136 9.04139 57.7807 7.67888 57.7807Z" fill="#EAB142"/>
<path d="M15.4823 31.6018C15.1467 31.6018 14.8083 31.6472 14.4735 31.739C13.4518 32.0193 12.6254 32.6885 12.1463 33.623L3.8719 49.771C3.07055 51.3352 3.15424 53.1563 4.09602 54.6425C5.02283 56.1048 6.60832 56.9706 8.34953 56.9706C8.3779 56.9706 8.40626 56.9704 8.43462 56.9701L45.9804 56.3663C47.6534 56.3391 48.5647 55.2143 48.8594 54.1704C49.1544 53.1266 48.9644 51.6982 47.5471 50.8198L17.4512 32.1677C16.847 31.7933 16.1711 31.6018 15.4823 31.6018ZM8.34814 59.4525C5.73527 59.4528 3.35686 58.1534 1.966 55.9594C0.553115 53.7296 0.427401 50.9972 1.63009 48.6502L9.90449 32.5023C10.6947 30.9601 12.115 29.8103 13.8011 29.3476C15.4875 28.8856 17.3048 29.147 18.7867 30.0654L48.8826 48.7176C51.0156 50.0395 51.9565 52.4417 51.2801 54.8372C50.6033 57.233 48.5394 58.8073 46.0213 58.8477L8.47551 59.4515C8.43297 59.4523 8.39042 59.4525 8.34814 59.4525Z" fill="#F8B024"/>
<path d="M8.3498 2.4819C6.60832 2.4819 5.02283 3.3478 4.09602 4.81014C3.15424 6.29627 3.07055 8.11745 3.87191 9.68169L12.1463 25.8295C12.6254 26.7641 13.4518 27.4332 14.4735 27.7135C15.4951 27.9937 16.5525 27.8414 17.4512 27.2849L47.5471 8.63276C48.9644 7.75431 49.1545 6.32592 48.8594 5.28215C48.5647 4.23828 47.6534 3.11339 45.9804 3.08649L8.43462 2.48259C8.40626 2.48207 8.37816 2.4819 8.3498 2.4819ZM15.4667 30.3287C14.9084 30.3287 14.3478 30.2549 13.801 30.1049C12.115 29.6422 10.6947 28.4924 9.90449 26.9503L1.63009 10.8025C0.427401 8.45541 0.553116 5.72304 1.966 3.49337C3.37922 1.2636 5.81679 -0.040624 8.47551 0.000965483L46.0213 0.604873C48.539 0.645432 50.6034 2.21956 51.2798 4.61516C51.9566 7.01086 51.0156 9.41308 48.8826 10.7349L18.7867 29.3871C17.7852 30.0079 16.6305 30.3287 15.4667 30.3287Z" fill="#F8B024"/>
</g>
<defs>
<clipPath id="clip0_128_4">
<rect width="52" height="60" fill="white"/>
</clipPath>
</defs>
</svg>
